<svg width="231" height="33" viewBox="0 0 231 33" fill="none" xmlns="http://www.w3.org/2000/svg">
    <g clip-path="url(#clip0_98_514)">
        <path
            d="M16.4311 19.2316L22.7708 21.8215C22.3452 24.2254 21.6748 26.2328 20.7594 27.8437C19.8441 29.4545 18.707 30.6705 17.3497 31.4916C15.9923 32.311 14.2652 32.7223 12.1684 32.7223C9.62464 32.7223 7.5459 32.2221 5.93385 31.2234C4.3218 30.2246 2.92995 28.4657 1.7583 25.9498C0.585005 23.4323 0 20.2106 0 16.2847C0 11.0506 1.03033 7.02756 3.08935 4.21719C5.15001 1.40518 8.06353 0 11.8316 0C14.7796 0 17.0982 0.806253 18.7859 2.41711C20.4735 4.02797 21.7257 6.50432 22.5457 9.84122L16.1583 11.7614C15.9348 10.7972 15.6998 10.093 15.455 9.64541C15.0507 8.89675 14.5561 8.3225 13.9695 7.91938C13.3844 7.51625 12.7288 7.31551 12.0057 7.31551C10.3658 7.31551 9.1103 8.20732 8.23772 9.98931C7.57712 11.3122 7.24847 13.3887 7.24847 16.2188C7.24847 19.7252 7.64286 22.1292 8.42998 23.4307C9.21711 24.7322 10.3247 25.3821 11.751 25.3821C13.1774 25.3821 14.1798 24.8573 14.888 23.8058C15.5963 22.7561 16.109 21.2308 16.4294 19.2299L16.4311 19.2316Z"
            fill="#2c2c2c"
        />
        <path
            d="M23.8721 0.539795H30.7426L33.2158 18.2543L36.8359 0.539795H43.6818L47.3117 18.2296L49.7865 0.539795H56.6209L51.461 32.1827H44.3687L40.2638 12.2601L36.1737 32.1827H29.0813L23.8721 0.539795Z"
            fill="#2c2c2c"
        />
        <path
            d="M73.3734 26.9585H65.162L64.0215 32.1827H56.6367L65.4331 0.539795H73.3224L82.1189 32.1827H74.545L73.3734 26.9585ZM71.8731 20.1169L69.2899 8.74218L66.7329 20.1169H71.8731Z"
            fill="#2c2c2c"
        />
        <path
            d="M105.383 9.52832H107.214C107.155 10.2266 106.96 10.8491 106.628 11.396C106.296 11.938 105.83 12.3652 105.229 12.6777C104.628 12.9902 103.898 13.1465 103.039 13.1465C102.38 13.1465 101.787 13.0293 101.259 12.7949C100.732 12.5557 100.28 12.2188 99.9043 11.7842C99.5283 11.3447 99.2402 10.8149 99.04 10.1948C98.8447 9.57471 98.7471 8.88135 98.7471 8.11475V7.22852C98.7471 6.46191 98.8472 5.76855 99.0474 5.14844C99.2524 4.52832 99.5454 3.99854 99.9263 3.55908C100.307 3.11475 100.764 2.77539 101.296 2.54102C101.833 2.30664 102.436 2.18945 103.105 2.18945C103.955 2.18945 104.672 2.3457 105.258 2.6582C105.844 2.9707 106.298 3.40283 106.621 3.95459C106.948 4.50635 107.148 5.13867 107.221 5.85156H105.39C105.341 5.39258 105.234 4.99951 105.068 4.67236C104.907 4.34521 104.667 4.09619 104.35 3.92529C104.033 3.74951 103.618 3.66162 103.105 3.66162C102.685 3.66162 102.319 3.73975 102.006 3.896C101.694 4.05225 101.433 4.28174 101.223 4.58447C101.013 4.88721 100.854 5.26074 100.747 5.70508C100.644 6.14453 100.593 6.64746 100.593 7.21387V8.11475C100.593 8.65186 100.639 9.14014 100.732 9.57959C100.83 10.0142 100.976 10.3877 101.171 10.7002C101.372 11.0127 101.625 11.2544 101.933 11.4253C102.241 11.5962 102.609 11.6816 103.039 11.6816C103.562 11.6816 103.984 11.5986 104.306 11.4326C104.633 11.2666 104.88 11.0249 105.046 10.7075C105.217 10.3853 105.329 9.99219 105.383 9.52832ZM108.371 9.12549V8.95703C108.371 8.38574 108.454 7.85596 108.62 7.36768C108.786 6.87451 109.025 6.44727 109.338 6.08594C109.655 5.71973 110.041 5.43652 110.495 5.23633C110.954 5.03125 111.472 4.92871 112.048 4.92871C112.629 4.92871 113.146 5.03125 113.601 5.23633C114.06 5.43652 114.448 5.71973 114.765 6.08594C115.083 6.44727 115.324 6.87451 115.49 7.36768C115.656 7.85596 115.739 8.38574 115.739 8.95703V9.12549C115.739 9.69678 115.656 10.2266 115.49 10.7148C115.324 11.2031 115.083 11.6304 114.765 11.9966C114.448 12.3579 114.062 12.6411 113.608 12.8462C113.154 13.0464 112.639 13.1465 112.062 13.1465C111.481 13.1465 110.961 13.0464 110.502 12.8462C110.048 12.6411 109.663 12.3579 109.345 11.9966C109.028 11.6304 108.786 11.2031 108.62 10.7148C108.454 10.2266 108.371 9.69678 108.371 9.12549ZM110.136 8.95703V9.12549C110.136 9.48193 110.173 9.81885 110.246 10.1362C110.319 10.4536 110.434 10.7319 110.59 10.9712C110.747 11.2104 110.947 11.3984 111.191 11.5352C111.435 11.6719 111.726 11.7402 112.062 11.7402C112.39 11.7402 112.673 11.6719 112.912 11.5352C113.156 11.3984 113.356 11.2104 113.513 10.9712C113.669 10.7319 113.784 10.4536 113.857 10.1362C113.935 9.81885 113.974 9.48193 113.974 9.12549V8.95703C113.974 8.60547 113.935 8.27344 113.857 7.96094C113.784 7.64355 113.667 7.36279 113.505 7.11865C113.349 6.87451 113.149 6.68408 112.905 6.54736C112.666 6.40576 112.38 6.33496 112.048 6.33496C111.716 6.33496 111.428 6.40576 111.184 6.54736C110.944 6.68408 110.747 6.87451 110.59 7.11865C110.434 7.36279 110.319 7.64355 110.246 7.96094C110.173 8.27344 110.136 8.60547 110.136 8.95703ZM118.984 6.68652V13H117.219V5.0752H118.881L118.984 6.68652ZM118.698 8.74463L118.098 8.7373C118.098 8.19043 118.166 7.68506 118.303 7.22119C118.439 6.75732 118.64 6.35449 118.903 6.0127C119.167 5.66602 119.494 5.3999 119.885 5.21436C120.28 5.02393 120.737 4.92871 121.254 4.92871C121.616 4.92871 121.945 4.98242 122.243 5.08984C122.546 5.19238 122.807 5.35596 123.027 5.58057C123.251 5.80518 123.422 6.09326 123.54 6.44482C123.662 6.79639 123.723 7.22119 123.723 7.71924V13H121.958V7.87305C121.958 7.4873 121.899 7.18457 121.782 6.96484C121.669 6.74512 121.506 6.58887 121.291 6.49609C121.081 6.39844 120.83 6.34961 120.537 6.34961C120.205 6.34961 119.921 6.41309 119.687 6.54004C119.458 6.66699 119.27 6.84033 119.123 7.06006C118.977 7.27979 118.869 7.53369 118.801 7.82178C118.732 8.10986 118.698 8.41748 118.698 8.74463ZM123.613 8.27588L122.785 8.45898C122.785 7.98047 122.851 7.52881 122.983 7.104C123.12 6.67432 123.317 6.29834 123.576 5.97607C123.84 5.64893 124.165 5.39258 124.55 5.20703C124.936 5.02148 125.378 4.92871 125.876 4.92871C126.281 4.92871 126.643 4.98486 126.96 5.09717C127.282 5.20459 127.556 5.37549 127.78 5.60986C128.005 5.84424 128.176 6.14941 128.293 6.52539C128.41 6.89648 128.469 7.3457 128.469 7.87305V13H126.696V7.86572C126.696 7.46533 126.638 7.15527 126.521 6.93555C126.408 6.71582 126.247 6.56445 126.037 6.48145C125.827 6.39355 125.576 6.34961 125.283 6.34961C125.009 6.34961 124.768 6.40088 124.558 6.50342C124.353 6.60107 124.179 6.74023 124.038 6.9209C123.896 7.09668 123.789 7.29932 123.715 7.52881C123.647 7.7583 123.613 8.00732 123.613 8.27588ZM132.05 6.68652V13H130.285V5.0752H131.948L132.05 6.68652ZM131.765 8.74463L131.164 8.7373C131.164 8.19043 131.232 7.68506 131.369 7.22119C131.506 6.75732 131.706 6.35449 131.97 6.0127C132.233 5.66602 132.561 5.3999 132.951 5.21436C133.347 5.02393 133.803 4.92871 134.321 4.92871C134.682 4.92871 135.012 4.98242 135.31 5.08984C135.612 5.19238 135.874 5.35596 136.093 5.58057C136.318 5.80518 136.489 6.09326 136.606 6.44482C136.728 6.79639 136.789 7.22119 136.789 7.71924V13H135.024V7.87305C135.024 7.4873 134.965 7.18457 134.848 6.96484C134.736 6.74512 134.572 6.58887 134.357 6.49609C134.147 6.39844 133.896 6.34961 133.603 6.34961C133.271 6.34961 132.988 6.41309 132.753 6.54004C132.524 6.66699 132.336 6.84033 132.189 7.06006C132.043 7.27979 131.936 7.53369 131.867 7.82178C131.799 8.10986 131.765 8.41748 131.765 8.74463ZM136.679 8.27588L135.852 8.45898C135.852 7.98047 135.917 7.52881 136.049 7.104C136.186 6.67432 136.384 6.29834 136.643 5.97607C136.906 5.64893 137.231 5.39258 137.617 5.20703C138.002 5.02148 138.444 4.92871 138.942 4.92871C139.348 4.92871 139.709 4.98486 140.026 5.09717C140.349 5.20459 140.622 5.37549 140.847 5.60986C141.071 5.84424 141.242 6.14941 141.359 6.52539C141.477 6.89648 141.535 7.3457 141.535 7.87305V13H139.763V7.86572C139.763 7.46533 139.704 7.15527 139.587 6.93555C139.475 6.71582 139.313 6.56445 139.104 6.48145C138.894 6.39355 138.642 6.34961 138.349 6.34961C138.076 6.34961 137.834 6.40088 137.624 6.50342C137.419 6.60107 137.246 6.74023 137.104 6.9209C136.962 7.09668 136.855 7.29932 136.782 7.52881C136.713 7.7583 136.679 8.00732 136.679 8.27588ZM148.12 11.1323V5.0752H149.892V13H148.222L148.12 11.1323ZM148.369 9.48438L148.962 9.46973C148.962 10.002 148.903 10.4927 148.786 10.9419C148.669 11.3862 148.488 11.7744 148.244 12.1064C148 12.4336 147.688 12.6899 147.307 12.8755C146.926 13.0562 146.469 13.1465 145.937 13.1465C145.551 13.1465 145.197 13.0903 144.875 12.978C144.553 12.8657 144.274 12.6924 144.04 12.458C143.811 12.2236 143.632 11.9185 143.505 11.5425C143.378 11.1665 143.315 10.7173 143.315 10.1948V5.0752H145.08V10.2095C145.08 10.4976 145.114 10.7393 145.183 10.9346C145.251 11.125 145.344 11.2788 145.461 11.396C145.578 11.5132 145.715 11.5962 145.871 11.645C146.027 11.6938 146.193 11.7183 146.369 11.7183C146.872 11.7183 147.268 11.6206 147.556 11.4253C147.849 11.2251 148.056 10.9565 148.178 10.6196C148.305 10.2827 148.369 9.9043 148.369 9.48438ZM153.452 6.76709V13H151.687V5.0752H153.349L153.452 6.76709ZM153.137 8.74463L152.565 8.7373C152.57 8.17578 152.648 7.66064 152.8 7.19189C152.956 6.72314 153.171 6.32031 153.444 5.9834C153.723 5.64648 154.055 5.3877 154.44 5.20703C154.826 5.02148 155.256 4.92871 155.729 4.92871C156.11 4.92871 156.455 4.98242 156.762 5.08984C157.075 5.19238 157.341 5.36084 157.561 5.59521C157.785 5.82959 157.956 6.13477 158.073 6.51074C158.19 6.88184 158.249 7.33838 158.249 7.88037V13H156.477V7.87305C156.477 7.49219 156.42 7.19189 156.308 6.97217C156.201 6.74756 156.042 6.58887 155.832 6.49609C155.627 6.39844 155.371 6.34961 155.063 6.34961C154.76 6.34961 154.489 6.41309 154.25 6.54004C154.011 6.66699 153.808 6.84033 153.642 7.06006C153.481 7.27979 153.356 7.53369 153.269 7.82178C153.181 8.10986 153.137 8.41748 153.137 8.74463ZM161.94 5.0752V13H160.168V5.0752H161.94ZM160.051 2.99512C160.051 2.72656 160.139 2.50439 160.314 2.32861C160.495 2.14795 160.744 2.05762 161.062 2.05762C161.374 2.05762 161.621 2.14795 161.801 2.32861C161.982 2.50439 162.072 2.72656 162.072 2.99512C162.072 3.25879 161.982 3.47852 161.801 3.6543C161.621 3.83008 161.374 3.91797 161.062 3.91797C160.744 3.91797 160.495 3.83008 160.314 3.6543C160.139 3.47852 160.051 3.25879 160.051 2.99512ZM167.111 11.7402C167.399 11.7402 167.658 11.6841 167.888 11.5718C168.122 11.4546 168.31 11.2935 168.452 11.0884C168.598 10.8833 168.679 10.6465 168.693 10.3779H170.356C170.346 10.8906 170.195 11.3569 169.902 11.7769C169.609 12.1968 169.221 12.5312 168.737 12.7803C168.254 13.0244 167.719 13.1465 167.133 13.1465C166.528 13.1465 166 13.0439 165.551 12.8389C165.102 12.6289 164.729 12.3408 164.431 11.9746C164.133 11.6084 163.908 11.186 163.757 10.7075C163.61 10.229 163.537 9.71631 163.537 9.16943V8.91309C163.537 8.36621 163.61 7.85352 163.757 7.375C163.908 6.8916 164.133 6.4668 164.431 6.10059C164.729 5.73438 165.102 5.44873 165.551 5.24365C166 5.03369 166.525 4.92871 167.126 4.92871C167.761 4.92871 168.317 5.05566 168.796 5.30957C169.274 5.55859 169.65 5.90771 169.924 6.35693C170.202 6.80127 170.346 7.31885 170.356 7.90967H168.693C168.679 7.6167 168.605 7.35303 168.474 7.11865C168.347 6.87939 168.166 6.68896 167.932 6.54736C167.702 6.40576 167.426 6.33496 167.104 6.33496C166.748 6.33496 166.452 6.4082 166.218 6.55469C165.983 6.69629 165.8 6.8916 165.668 7.14062C165.537 7.38477 165.441 7.66064 165.383 7.96826C165.329 8.271 165.302 8.58594 165.302 8.91309V9.16943C165.302 9.49658 165.329 9.81396 165.383 10.1216C165.437 10.4292 165.529 10.7051 165.661 10.9492C165.798 11.1885 165.983 11.3813 166.218 11.5278C166.452 11.6694 166.75 11.7402 167.111 11.7402ZM176.179 11.4106V7.63135C176.179 7.34814 176.127 7.104 176.025 6.89893C175.922 6.69385 175.766 6.53516 175.556 6.42285C175.351 6.31055 175.092 6.25439 174.78 6.25439C174.492 6.25439 174.243 6.30322 174.033 6.40088C173.823 6.49854 173.659 6.63037 173.542 6.79639C173.425 6.9624 173.366 7.15039 173.366 7.36035H171.608C171.608 7.04785 171.684 6.74512 171.835 6.45215C171.987 6.15918 172.207 5.89795 172.495 5.66846C172.783 5.43896 173.127 5.2583 173.527 5.12646C173.928 4.99463 174.377 4.92871 174.875 4.92871C175.471 4.92871 175.998 5.02881 176.457 5.229C176.921 5.4292 177.285 5.73193 177.548 6.13721C177.817 6.5376 177.951 7.04053 177.951 7.646V11.1689C177.951 11.5303 177.976 11.855 178.024 12.1431C178.078 12.4263 178.154 12.6729 178.251 12.8828V13H176.442C176.359 12.8096 176.293 12.5679 176.245 12.2749C176.201 11.9771 176.179 11.689 176.179 11.4106ZM176.435 8.18066L176.45 9.27197H175.183C174.855 9.27197 174.567 9.30371 174.318 9.36719C174.069 9.42578 173.862 9.51367 173.696 9.63086C173.53 9.74805 173.405 9.88965 173.322 10.0557C173.239 10.2217 173.198 10.4097 173.198 10.6196C173.198 10.8296 173.247 11.0225 173.344 11.1982C173.442 11.3691 173.583 11.5034 173.769 11.6011C173.959 11.6987 174.189 11.7476 174.458 11.7476C174.819 11.7476 175.134 11.6743 175.402 11.5278C175.676 11.3765 175.891 11.1934 176.047 10.9785C176.203 10.7588 176.286 10.5513 176.296 10.356L176.867 11.1396C176.809 11.3398 176.708 11.5547 176.567 11.7842C176.425 12.0137 176.24 12.2334 176.01 12.4434C175.786 12.6484 175.515 12.8169 175.197 12.9487C174.885 13.0806 174.523 13.1465 174.113 13.1465C173.596 13.1465 173.134 13.0439 172.729 12.8389C172.324 12.6289 172.006 12.3481 171.777 11.9966C171.547 11.6401 171.433 11.2373 171.433 10.7881C171.433 10.3682 171.511 9.99707 171.667 9.6748C171.828 9.34766 172.062 9.07422 172.37 8.85449C172.683 8.63477 173.063 8.46875 173.513 8.35645C173.962 8.23926 174.475 8.18066 175.051 8.18066H176.435ZM183.43 5.0752V6.36426H178.962V5.0752H183.43ZM180.251 3.13428H182.016V10.8101C182.016 11.0542 182.05 11.2422 182.119 11.374C182.192 11.501 182.292 11.5864 182.419 11.6304C182.546 11.6743 182.695 11.6963 182.866 11.6963C182.988 11.6963 183.105 11.689 183.217 11.6743C183.33 11.6597 183.42 11.645 183.488 11.6304L183.496 12.978C183.349 13.022 183.178 13.061 182.983 13.0952C182.792 13.1294 182.573 13.1465 182.324 13.1465C181.918 13.1465 181.56 13.0757 181.247 12.9341C180.935 12.7876 180.69 12.5508 180.515 12.2236C180.339 11.8965 180.251 11.4619 180.251 10.9199V3.13428ZM186.682 5.0752V13H184.909V5.0752H186.682ZM184.792 2.99512C184.792 2.72656 184.88 2.50439 185.056 2.32861C185.236 2.14795 185.485 2.05762 185.803 2.05762C186.115 2.05762 186.362 2.14795 186.542 2.32861C186.723 2.50439 186.813 2.72656 186.813 2.99512C186.813 3.25879 186.723 3.47852 186.542 3.6543C186.362 3.83008 186.115 3.91797 185.803 3.91797C185.485 3.91797 185.236 3.83008 185.056 3.6543C184.88 3.47852 184.792 3.25879 184.792 2.99512ZM188.278 9.12549V8.95703C188.278 8.38574 188.361 7.85596 188.527 7.36768C188.693 6.87451 188.933 6.44727 189.245 6.08594C189.562 5.71973 189.948 5.43652 190.402 5.23633C190.861 5.03125 191.379 4.92871 191.955 4.92871C192.536 4.92871 193.054 5.03125 193.508 5.23633C193.967 5.43652 194.355 5.71973 194.672 6.08594C194.99 6.44727 195.231 6.87451 195.397 7.36768C195.563 7.85596 195.646 8.38574 195.646 8.95703V9.12549C195.646 9.69678 195.563 10.2266 195.397 10.7148C195.231 11.2031 194.99 11.6304 194.672 11.9966C194.355 12.3579 193.969 12.6411 193.515 12.8462C193.061 13.0464 192.546 13.1465 191.97 13.1465C191.389 13.1465 190.869 13.0464 190.41 12.8462C189.956 12.6411 189.57 12.3579 189.252 11.9966C188.935 11.6304 188.693 11.2031 188.527 10.7148C188.361 10.2266 188.278 9.69678 188.278 9.12549ZM190.043 8.95703V9.12549C190.043 9.48193 190.08 9.81885 190.153 10.1362C190.227 10.4536 190.341 10.7319 190.498 10.9712C190.654 11.2104 190.854 11.3984 191.098 11.5352C191.342 11.6719 191.633 11.7402 191.97 11.7402C192.297 11.7402 192.58 11.6719 192.819 11.5352C193.063 11.3984 193.264 11.2104 193.42 10.9712C193.576 10.7319 193.691 10.4536 193.764 10.1362C193.842 9.81885 193.881 9.48193 193.881 9.12549V8.95703C193.881 8.60547 193.842 8.27344 193.764 7.96094C193.691 7.64355 193.574 7.36279 193.413 7.11865C193.256 6.87451 193.056 6.68408 192.812 6.54736C192.573 6.40576 192.287 6.33496 191.955 6.33496C191.623 6.33496 191.335 6.40576 191.091 6.54736C190.852 6.68408 190.654 6.87451 190.498 7.11865C190.341 7.36279 190.227 7.64355 190.153 7.96094C190.08 8.27344 190.043 8.60547 190.043 8.95703ZM198.876 6.76709V13H197.111V5.0752H198.774L198.876 6.76709ZM198.562 8.74463L197.99 8.7373C197.995 8.17578 198.073 7.66064 198.225 7.19189C198.381 6.72314 198.596 6.32031 198.869 5.9834C199.147 5.64648 199.479 5.3877 199.865 5.20703C200.251 5.02148 200.681 4.92871 201.154 4.92871C201.535 4.92871 201.879 4.98242 202.187 5.08984C202.5 5.19238 202.766 5.36084 202.985 5.59521C203.21 5.82959 203.381 6.13477 203.498 6.51074C203.615 6.88184 203.674 7.33838 203.674 7.88037V13H201.901V7.87305C201.901 7.49219 201.845 7.19189 201.733 6.97217C201.625 6.74756 201.467 6.58887 201.257 6.49609C201.052 6.39844 200.795 6.34961 200.488 6.34961C200.185 6.34961 199.914 6.41309 199.675 6.54004C199.436 6.66699 199.233 6.84033 199.067 7.06006C198.906 7.27979 198.781 7.53369 198.693 7.82178C198.605 8.10986 198.562 8.41748 198.562 8.74463ZM209.921 10.854C209.921 10.6782 209.877 10.5195 209.79 10.3779C209.702 10.2314 209.533 10.0996 209.284 9.98242C209.04 9.86523 208.679 9.75781 208.2 9.66016C207.78 9.56738 207.395 9.45752 207.043 9.33057C206.696 9.19873 206.398 9.04004 206.149 8.85449C205.9 8.66895 205.708 8.44922 205.571 8.19531C205.434 7.94141 205.366 7.64844 205.366 7.31641C205.366 6.99414 205.437 6.68896 205.578 6.40088C205.72 6.11279 205.922 5.85889 206.186 5.63916C206.45 5.41943 206.77 5.24609 207.146 5.11914C207.526 4.99219 207.951 4.92871 208.42 4.92871C209.084 4.92871 209.653 5.04102 210.126 5.26562C210.605 5.48535 210.971 5.78564 211.225 6.1665C211.479 6.54248 211.606 6.96729 211.606 7.44092H209.841C209.841 7.23096 209.787 7.03564 209.68 6.85498C209.577 6.66943 209.421 6.52051 209.211 6.4082C209.001 6.29102 208.737 6.23242 208.42 6.23242C208.117 6.23242 207.866 6.28125 207.666 6.37891C207.47 6.47168 207.324 6.59375 207.226 6.74512C207.133 6.89648 207.087 7.0625 207.087 7.24316C207.087 7.375 207.111 7.49463 207.16 7.60205C207.214 7.70459 207.302 7.7998 207.424 7.8877C207.546 7.9707 207.712 8.04883 207.922 8.12207C208.137 8.19531 208.405 8.26611 208.728 8.33447C209.333 8.46143 209.853 8.625 210.288 8.8252C210.727 9.02051 211.064 9.27441 211.298 9.58691C211.533 9.89453 211.65 10.2852 211.65 10.7588C211.65 11.1104 211.574 11.4326 211.423 11.7256C211.276 12.0137 211.062 12.2651 210.778 12.48C210.495 12.6899 210.156 12.8535 209.76 12.9707C209.37 13.0879 208.93 13.1465 208.442 13.1465C207.724 13.1465 207.116 13.0195 206.618 12.7656C206.12 12.5068 205.742 12.1772 205.483 11.7769C205.229 11.3716 205.102 10.9517 205.102 10.5171H206.809C206.828 10.8442 206.918 11.1055 207.08 11.3008C207.246 11.4912 207.451 11.6304 207.695 11.7183C207.944 11.8013 208.2 11.8428 208.464 11.8428C208.781 11.8428 209.047 11.8013 209.262 11.7183C209.477 11.6304 209.641 11.5132 209.753 11.3667C209.865 11.2153 209.921 11.0444 209.921 10.854ZM101.757 28.605L103.881 20.3359H104.995L104.87 22.4673L102.6 31H101.442L101.757 28.605ZM100.168 20.3359L101.889 28.5391L102.043 31H100.812L98.3442 20.3359H100.168ZM107.404 28.5171L109.104 20.3359H110.935L108.466 31H107.236L107.404 28.5171ZM105.427 20.3359L107.529 28.627L107.836 31H106.679L104.445 22.4673L104.328 20.3359H105.427ZM111.55 27.1255V26.957C111.55 26.3857 111.633 25.856 111.799 25.3677C111.965 24.8745 112.204 24.4473 112.517 24.0859C112.834 23.7197 113.22 23.4365 113.674 23.2363C114.133 23.0312 114.65 22.9287 115.227 22.9287C115.808 22.9287 116.325 23.0312 116.779 23.2363C117.238 23.4365 117.626 23.7197 117.944 24.0859C118.261 24.4473 118.503 24.8745 118.669 25.3677C118.835 25.856 118.918 26.3857 118.918 26.957V27.1255C118.918 27.6968 118.835 28.2266 118.669 28.7148C118.503 29.2031 118.261 29.6304 117.944 29.9966C117.626 30.3579 117.241 30.6411 116.787 30.8462C116.333 31.0464 115.817 31.1465 115.241 31.1465C114.66 31.1465 114.14 31.0464 113.681 30.8462C113.227 30.6411 112.841 30.3579 112.524 29.9966C112.207 29.6304 111.965 29.2031 111.799 28.7148C111.633 28.2266 111.55 27.6968 111.55 27.1255ZM113.315 26.957V27.1255C113.315 27.4819 113.352 27.8188 113.425 28.1362C113.498 28.4536 113.613 28.7319 113.769 28.9712C113.925 29.2104 114.125 29.3984 114.37 29.5352C114.614 29.6719 114.904 29.7402 115.241 29.7402C115.568 29.7402 115.852 29.6719 116.091 29.5352C116.335 29.3984 116.535 29.2104 116.691 28.9712C116.848 28.7319 116.962 28.4536 117.036 28.1362C117.114 27.8188 117.153 27.4819 117.153 27.1255V26.957C117.153 26.6055 117.114 26.2734 117.036 25.9609C116.962 25.6436 116.845 25.3628 116.684 25.1187C116.528 24.8745 116.328 24.6841 116.083 24.5474C115.844 24.4058 115.559 24.335 115.227 24.335C114.895 24.335 114.606 24.4058 114.362 24.5474C114.123 24.6841 113.925 24.8745 113.769 25.1187C113.613 25.3628 113.498 25.6436 113.425 25.9609C113.352 26.2734 113.315 26.6055 113.315 26.957ZM122.17 24.584V31H120.405V23.0752H122.089L122.17 24.584ZM124.594 23.0239L124.58 24.6646C124.472 24.645 124.355 24.6304 124.228 24.6206C124.106 24.6108 123.984 24.606 123.862 24.606C123.559 24.606 123.293 24.6499 123.063 24.7378C122.834 24.8208 122.641 24.9429 122.485 25.104C122.333 25.2603 122.216 25.4507 122.133 25.6753C122.05 25.8999 122.001 26.1514 121.987 26.4297L121.584 26.459C121.584 25.9609 121.633 25.4995 121.73 25.0747C121.828 24.6499 121.975 24.2764 122.17 23.9541C122.37 23.6318 122.619 23.3804 122.917 23.1997C123.22 23.019 123.569 22.9287 123.964 22.9287C124.072 22.9287 124.187 22.9385 124.309 22.958C124.436 22.9775 124.531 22.9995 124.594 23.0239ZM127.48 19.75V31H125.708V19.75H127.48ZM132.402 23.0752L128.952 26.8984L127.062 28.832L126.601 27.3379L128.029 25.5728L130.271 23.0752H132.402ZM130.651 31L128.081 27.2793L129.194 26.0415L132.695 31H130.651ZM136.87 31.1465C136.284 31.1465 135.754 31.0513 135.28 30.8608C134.812 30.6655 134.411 30.3945 134.079 30.0479C133.752 29.7012 133.5 29.2935 133.325 28.8247C133.149 28.356 133.061 27.8506 133.061 27.3086V27.0156C133.061 26.3955 133.151 25.834 133.332 25.3311C133.513 24.8281 133.764 24.3984 134.086 24.042C134.409 23.6807 134.79 23.4048 135.229 23.2144C135.668 23.0239 136.145 22.9287 136.657 22.9287C137.224 22.9287 137.719 23.0239 138.144 23.2144C138.569 23.4048 138.92 23.6733 139.199 24.02C139.482 24.3618 139.692 24.7695 139.829 25.2432C139.97 25.7168 140.041 26.2393 140.041 26.8105V27.5649H133.918V26.2979H138.298V26.1587C138.288 25.8413 138.225 25.5435 138.107 25.2651C137.995 24.9868 137.822 24.7622 137.587 24.5913C137.353 24.4204 137.041 24.335 136.65 24.335C136.357 24.335 136.096 24.3984 135.866 24.5254C135.642 24.6475 135.454 24.8257 135.302 25.0601C135.151 25.2944 135.034 25.5776 134.951 25.9097C134.873 26.2368 134.833 26.6055 134.833 27.0156V27.3086C134.833 27.6553 134.88 27.9775 134.973 28.2754C135.07 28.5684 135.212 28.8247 135.397 29.0444C135.583 29.2642 135.808 29.4375 136.071 29.5645C136.335 29.6865 136.635 29.7476 136.972 29.7476C137.397 29.7476 137.775 29.6621 138.107 29.4912C138.439 29.3203 138.728 29.0786 138.972 28.7661L139.902 29.667C139.731 29.916 139.509 30.1553 139.235 30.3848C138.962 30.6094 138.627 30.7925 138.232 30.9341C137.841 31.0757 137.387 31.1465 136.87 31.1465ZM143.19 24.584V31H141.425V23.0752H143.11L143.19 24.584ZM145.615 23.0239L145.6 24.6646C145.493 24.645 145.375 24.6304 145.249 24.6206C145.126 24.6108 145.004 24.606 144.882 24.606C144.58 24.606 144.313 24.6499 144.084 24.7378C143.854 24.8208 143.662 24.9429 143.505 25.104C143.354 25.2603 143.237 25.4507 143.154 25.6753C143.071 25.8999 143.022 26.1514 143.007 26.4297L142.604 26.459C142.604 25.9609 142.653 25.4995 142.751 25.0747C142.849 24.6499 142.995 24.2764 143.19 23.9541C143.391 23.6318 143.64 23.3804 143.938 23.1997C144.24 23.019 144.589 22.9287 144.985 22.9287C145.092 22.9287 145.207 22.9385 145.329 22.958C145.456 22.9775 145.551 22.9995 145.615 23.0239ZM151.167 28.854C151.167 28.6782 151.123 28.5195 151.035 28.3779C150.947 28.2314 150.778 28.0996 150.529 27.9824C150.285 27.8652 149.924 27.7578 149.445 27.6602C149.025 27.5674 148.64 27.4575 148.288 27.3306C147.941 27.1987 147.644 27.04 147.395 26.8545C147.146 26.6689 146.953 26.4492 146.816 26.1953C146.679 25.9414 146.611 25.6484 146.611 25.3164C146.611 24.9941 146.682 24.689 146.823 24.4009C146.965 24.1128 147.167 23.8589 147.431 23.6392C147.695 23.4194 148.015 23.2461 148.391 23.1191C148.771 22.9922 149.196 22.9287 149.665 22.9287C150.329 22.9287 150.898 23.041 151.372 23.2656C151.85 23.4854 152.216 23.7856 152.47 24.1665C152.724 24.5425 152.851 24.9673 152.851 25.4409H151.086C151.086 25.231 151.032 25.0356 150.925 24.855C150.822 24.6694 150.666 24.5205 150.456 24.4082C150.246 24.291 149.982 24.2324 149.665 24.2324C149.362 24.2324 149.111 24.2812 148.911 24.3789C148.715 24.4717 148.569 24.5938 148.471 24.7451C148.378 24.8965 148.332 25.0625 148.332 25.2432C148.332 25.375 148.356 25.4946 148.405 25.6021C148.459 25.7046 148.547 25.7998 148.669 25.8877C148.791 25.9707 148.957 26.0488 149.167 26.1221C149.382 26.1953 149.65 26.2661 149.973 26.3345C150.578 26.4614 151.098 26.625 151.533 26.8252C151.972 27.0205 152.309 27.2744 152.543 27.5869C152.778 27.8945 152.895 28.2852 152.895 28.7588C152.895 29.1104 152.819 29.4326 152.668 29.7256C152.521 30.0137 152.307 30.2651 152.023 30.48C151.74 30.6899 151.401 30.8535 151.005 30.9707C150.615 31.0879 150.175 31.1465 149.687 31.1465C148.969 31.1465 148.361 31.0195 147.863 30.7656C147.365 30.5068 146.987 30.1772 146.728 29.7769C146.474 29.3716 146.347 28.9517 146.347 28.5171H148.054C148.073 28.8442 148.164 29.1055 148.325 29.3008C148.491 29.4912 148.696 29.6304 148.94 29.7183C149.189 29.8013 149.445 29.8428 149.709 29.8428C150.026 29.8428 150.292 29.8013 150.507 29.7183C150.722 29.6304 150.886 29.5132 150.998 29.3667C151.11 29.2153 151.167 29.0444 151.167 28.854ZM157.839 27.1255V26.957C157.839 26.3857 157.922 25.856 158.088 25.3677C158.254 24.8745 158.493 24.4473 158.806 24.0859C159.123 23.7197 159.509 23.4365 159.963 23.2363C160.422 23.0312 160.939 22.9287 161.516 22.9287C162.097 22.9287 162.614 23.0312 163.068 23.2363C163.527 23.4365 163.916 23.7197 164.233 24.0859C164.55 24.4473 164.792 24.8745 164.958 25.3677C165.124 25.856 165.207 26.3857 165.207 26.957V27.1255C165.207 27.6968 165.124 28.2266 164.958 28.7148C164.792 29.2031 164.55 29.6304 164.233 29.9966C163.916 30.3579 163.53 30.6411 163.076 30.8462C162.622 31.0464 162.106 31.1465 161.53 31.1465C160.949 31.1465 160.429 31.0464 159.97 30.8462C159.516 30.6411 159.13 30.3579 158.813 29.9966C158.496 29.6304 158.254 29.2031 158.088 28.7148C157.922 28.2266 157.839 27.6968 157.839 27.1255ZM159.604 26.957V27.1255C159.604 27.4819 159.641 27.8188 159.714 28.1362C159.787 28.4536 159.902 28.7319 160.058 28.9712C160.214 29.2104 160.415 29.3984 160.659 29.5352C160.903 29.6719 161.193 29.7402 161.53 29.7402C161.857 29.7402 162.141 29.6719 162.38 29.5352C162.624 29.3984 162.824 29.2104 162.98 28.9712C163.137 28.7319 163.251 28.4536 163.325 28.1362C163.403 27.8188 163.442 27.4819 163.442 27.1255V26.957C163.442 26.6055 163.403 26.2734 163.325 25.9609C163.251 25.6436 163.134 25.3628 162.973 25.1187C162.817 24.8745 162.617 24.6841 162.373 24.5474C162.133 24.4058 161.848 24.335 161.516 24.335C161.184 24.335 160.896 24.4058 160.651 24.5474C160.412 24.6841 160.214 24.8745 160.058 25.1187C159.902 25.3628 159.787 25.6436 159.714 25.9609C159.641 26.2734 159.604 26.6055 159.604 26.957ZM169.074 31H167.309V22.3135C167.309 21.7227 167.419 21.2271 167.639 20.8267C167.863 20.4214 168.183 20.1162 168.598 19.9111C169.013 19.7012 169.504 19.5962 170.07 19.5962C170.246 19.5962 170.419 19.6084 170.59 19.6328C170.761 19.6523 170.927 19.6841 171.088 19.728L171.044 21.0903C170.947 21.0659 170.839 21.0488 170.722 21.0391C170.61 21.0293 170.488 21.0244 170.356 21.0244C170.087 21.0244 169.855 21.0757 169.66 21.1782C169.47 21.2759 169.323 21.4199 169.221 21.6104C169.123 21.8008 169.074 22.0352 169.074 22.3135V31ZM170.708 23.0752V24.3643H166.093V23.0752H170.708ZM180.053 21.7568L176.867 31H174.941L178.955 20.3359H180.185L180.053 21.7568ZM182.719 31L179.526 21.7568L179.387 20.3359H180.625L184.653 31H182.719ZM182.565 27.0449V28.5024H176.765V27.0449H182.565ZM187.304 24.6865V31H185.539V23.0752H187.202L187.304 24.6865ZM187.019 26.7446L186.418 26.7373C186.418 26.1904 186.486 25.6851 186.623 25.2212C186.76 24.7573 186.96 24.3545 187.224 24.0127C187.487 23.666 187.814 23.3999 188.205 23.2144C188.601 23.0239 189.057 22.9287 189.575 22.9287C189.936 22.9287 190.266 22.9824 190.563 23.0898C190.866 23.1924 191.127 23.356 191.347 23.5806C191.572 23.8052 191.743 24.0933 191.86 24.4448C191.982 24.7964 192.043 25.2212 192.043 25.7192V31H190.278V25.873C190.278 25.4873 190.219 25.1846 190.102 24.9648C189.99 24.7451 189.826 24.5889 189.611 24.4961C189.401 24.3984 189.15 24.3496 188.857 24.3496C188.525 24.3496 188.242 24.4131 188.007 24.54C187.778 24.667 187.59 24.8403 187.443 25.0601C187.297 25.2798 187.189 25.5337 187.121 25.8218C187.053 26.1099 187.019 26.4175 187.019 26.7446ZM191.933 26.2759L191.105 26.459C191.105 25.9805 191.171 25.5288 191.303 25.104C191.44 24.6743 191.638 24.2983 191.896 23.9761C192.16 23.6489 192.485 23.3926 192.871 23.207C193.256 23.0215 193.698 22.9287 194.196 22.9287C194.602 22.9287 194.963 22.9849 195.28 23.0972C195.603 23.2046 195.876 23.3755 196.101 23.6099C196.325 23.8442 196.496 24.1494 196.613 24.5254C196.73 24.8965 196.789 25.3457 196.789 25.873V31H195.017V25.8657C195.017 25.4653 194.958 25.1553 194.841 24.9355C194.729 24.7158 194.567 24.5645 194.357 24.4814C194.147 24.3936 193.896 24.3496 193.603 24.3496C193.33 24.3496 193.088 24.4009 192.878 24.5034C192.673 24.6011 192.5 24.7402 192.358 24.9209C192.216 25.0967 192.109 25.2993 192.036 25.5288C191.967 25.7583 191.933 26.0073 191.933 26.2759ZM202.099 31.1465C201.513 31.1465 200.983 31.0513 200.51 30.8608C200.041 30.6655 199.641 30.3945 199.309 30.0479C198.981 29.7012 198.73 29.2935 198.554 28.8247C198.378 28.356 198.291 27.8506 198.291 27.3086V27.0156C198.291 26.3955 198.381 25.834 198.562 25.3311C198.742 24.8281 198.994 24.3984 199.316 24.042C199.638 23.6807 200.019 23.4048 200.458 23.2144C200.898 23.0239 201.374 22.9287 201.887 22.9287C202.453 22.9287 202.949 23.0239 203.374 23.2144C203.798 23.4048 204.15 23.6733 204.428 24.02C204.711 24.3618 204.921 24.7695 205.058 25.2432C205.2 25.7168 205.271 26.2393 205.271 26.8105V27.5649H199.147V26.2979H203.527V26.1587C203.518 25.8413 203.454 25.5435 203.337 25.2651C203.225 24.9868 203.051 24.7622 202.817 24.5913C202.583 24.4204 202.27 24.335 201.879 24.335C201.586 24.335 201.325 24.3984 201.096 24.5254C200.871 24.6475 200.683 24.8257 200.532 25.0601C200.38 25.2944 200.263 25.5776 200.18 25.9097C200.102 26.2368 200.063 26.6055 200.063 27.0156V27.3086C200.063 27.6553 200.109 27.9775 200.202 28.2754C200.3 28.5684 200.441 28.8247 200.627 29.0444C200.812 29.2642 201.037 29.4375 201.301 29.5645C201.564 29.6865 201.865 29.7476 202.202 29.7476C202.626 29.7476 203.005 29.6621 203.337 29.4912C203.669 29.3203 203.957 29.0786 204.201 28.7661L205.131 29.667C204.96 29.916 204.738 30.1553 204.465 30.3848C204.191 30.6094 203.857 30.7925 203.461 30.9341C203.071 31.0757 202.617 31.1465 202.099 31.1465ZM208.42 24.584V31H206.655V23.0752H208.339L208.42 24.584ZM210.844 23.0239L210.83 24.6646C210.722 24.645 210.605 24.6304 210.478 24.6206C210.356 24.6108 210.234 24.606 210.112 24.606C209.809 24.606 209.543 24.6499 209.313 24.7378C209.084 24.8208 208.891 24.9429 208.735 25.104C208.583 25.2603 208.466 25.4507 208.383 25.6753C208.3 25.8999 208.251 26.1514 208.237 26.4297L207.834 26.459C207.834 25.9609 207.883 25.4995 207.98 25.0747C208.078 24.6499 208.225 24.2764 208.42 23.9541C208.62 23.6318 208.869 23.3804 209.167 23.1997C209.47 23.019 209.819 22.9287 210.214 22.9287C210.322 22.9287 210.437 22.9385 210.559 22.958C210.686 22.9775 210.781 22.9995 210.844 23.0239ZM213.84 23.0752V31H212.067V23.0752H213.84ZM211.95 20.9951C211.95 20.7266 212.038 20.5044 212.214 20.3286C212.395 20.1479 212.644 20.0576 212.961 20.0576C213.273 20.0576 213.52 20.1479 213.701 20.3286C213.881 20.5044 213.972 20.7266 213.972 20.9951C213.972 21.2588 213.881 21.4785 213.701 21.6543C213.52 21.8301 213.273 21.918 212.961 21.918C212.644 21.918 212.395 21.8301 212.214 21.6543C212.038 21.4785 211.95 21.2588 211.95 20.9951ZM219.011 29.7402C219.299 29.7402 219.558 29.6841 219.787 29.5718C220.021 29.4546 220.209 29.2935 220.351 29.0884C220.498 28.8833 220.578 28.6465 220.593 28.3779H222.255C222.246 28.8906 222.094 29.3569 221.801 29.7769C221.508 30.1968 221.12 30.5312 220.637 30.7803C220.153 31.0244 219.619 31.1465 219.033 31.1465C218.427 31.1465 217.9 31.0439 217.451 30.8389C217.001 30.6289 216.628 30.3408 216.33 29.9746C216.032 29.6084 215.808 29.186 215.656 28.7075C215.51 28.229 215.437 27.7163 215.437 27.1694V26.9131C215.437 26.3662 215.51 25.8535 215.656 25.375C215.808 24.8916 216.032 24.4668 216.33 24.1006C216.628 23.7344 217.001 23.4487 217.451 23.2437C217.9 23.0337 218.425 22.9287 219.025 22.9287C219.66 22.9287 220.217 23.0557 220.695 23.3096C221.174 23.5586 221.55 23.9077 221.823 24.3569C222.102 24.8013 222.246 25.3188 222.255 25.9097H220.593C220.578 25.6167 220.505 25.353 220.373 25.1187C220.246 24.8794 220.065 24.689 219.831 24.5474C219.602 24.4058 219.326 24.335 219.003 24.335C218.647 24.335 218.352 24.4082 218.117 24.5547C217.883 24.6963 217.7 24.8916 217.568 25.1406C217.436 25.3848 217.341 25.6606 217.282 25.9683C217.229 26.271 217.202 26.5859 217.202 26.9131V27.1694C217.202 27.4966 217.229 27.814 217.282 28.1216C217.336 28.4292 217.429 28.7051 217.561 28.9492C217.697 29.1885 217.883 29.3813 218.117 29.5278C218.352 29.6694 218.649 29.7402 219.011 29.7402ZM228.078 29.4106V25.6313C228.078 25.3481 228.027 25.104 227.924 24.8989C227.822 24.6938 227.666 24.5352 227.456 24.4229C227.25 24.3105 226.992 24.2544 226.679 24.2544C226.391 24.2544 226.142 24.3032 225.932 24.4009C225.722 24.4985 225.559 24.6304 225.441 24.7964C225.324 24.9624 225.266 25.1504 225.266 25.3604H223.508C223.508 25.0479 223.583 24.7451 223.735 24.4521C223.886 24.1592 224.106 23.8979 224.394 23.6685C224.682 23.439 225.026 23.2583 225.427 23.1265C225.827 22.9946 226.276 22.9287 226.774 22.9287C227.37 22.9287 227.897 23.0288 228.356 23.229C228.82 23.4292 229.184 23.7319 229.448 24.1372C229.716 24.5376 229.851 25.0405 229.851 25.646V29.1689C229.851 29.5303 229.875 29.855 229.924 30.1431C229.978 30.4263 230.053 30.6729 230.151 30.8828V31H228.342C228.259 30.8096 228.193 30.5679 228.144 30.2749C228.1 29.9771 228.078 29.689 228.078 29.4106ZM228.334 26.1807L228.349 27.272H227.082C226.755 27.272 226.467 27.3037 226.218 27.3672C225.969 27.4258 225.761 27.5137 225.595 27.6309C225.429 27.748 225.305 27.8896 225.222 28.0557C225.139 28.2217 225.097 28.4097 225.097 28.6196C225.097 28.8296 225.146 29.0225 225.244 29.1982C225.341 29.3691 225.483 29.5034 225.668 29.6011C225.859 29.6987 226.088 29.7476 226.357 29.7476C226.718 29.7476 227.033 29.6743 227.302 29.5278C227.575 29.3765 227.79 29.1934 227.946 28.9785C228.103 28.7588 228.186 28.5513 228.195 28.356L228.767 29.1396C228.708 29.3398 228.608 29.5547 228.466 29.7842C228.325 30.0137 228.139 30.2334 227.91 30.4434C227.685 30.6484 227.414 30.8169 227.097 30.9487C226.784 31.0806 226.423 31.1465 226.013 31.1465C225.495 31.1465 225.034 31.0439 224.628 30.8389C224.223 30.6289 223.906 30.3481 223.676 29.9966C223.447 29.6401 223.332 29.2373 223.332 28.7881C223.332 28.3682 223.41 27.9971 223.566 27.6748C223.728 27.3477 223.962 27.0742 224.27 26.8545C224.582 26.6348 224.963 26.4688 225.412 26.3564C225.861 26.2393 226.374 26.1807 226.95 26.1807H228.334Z"
            fill="#2c2c2c"
        />
        <line x1="90" y1="33" x2="90" y2="-4.37114e-08" stroke="#2c2c2c" stroke-width="2" />
    </g>
    <defs>
        <clipPath id="clip0_98_514">
            <rect width="231" height="33" fill="#2c2c2c" />
        </clipPath>
    </defs>
</svg>
